<mxfile host="Electron" modified="2023-09-16T00:53:51.891Z" agent="Mozilla/5.0 (Windows NT 10.0; Win64; x64) AppleWebKit/537.36 (KHTML, like Gecko) draw.io/21.5.1 Chrome/112.0.5615.204 Electron/24.6.0 Safari/537.36" etag="3SXyDjpJqwvOcKBPUSNk" version="21.5.1" type="device">
  <diagram name="Page-1" id="WNvD5rfEWLwmBpsykwdB">
    <mxGraphModel dx="1605" dy="831" grid="1" gridSize="10" guides="1" tooltips="1" connect="1" arrows="1" fold="1" page="1" pageScale="1" pageWidth="827" pageHeight="1169" math="0" shadow="0">
      <root>
        <mxCell id="0" />
        <mxCell id="1" parent="0" />
        <mxCell id="HPaSDG_vXja3L0WpvbV5-1" value="On-Premise" style="sketch=0;outlineConnect=0;gradientColor=none;html=1;whiteSpace=wrap;fontSize=12;fontStyle=0;shape=mxgraph.aws4.group;grIcon=mxgraph.aws4.group_on_premise;strokeColor=#AAB7B8;fillColor=none;verticalAlign=top;align=right;spacingLeft=30;fontColor=#AAB7B8;dashed=0;" vertex="1" parent="1">
          <mxGeometry x="-420" y="170" width="230" height="380" as="geometry" />
        </mxCell>
        <mxCell id="HPaSDG_vXja3L0WpvbV5-2" style="edgeStyle=orthogonalEdgeStyle;rounded=0;orthogonalLoop=1;jettySize=auto;html=1;" edge="1" parent="1" source="HPaSDG_vXja3L0WpvbV5-3" target="HPaSDG_vXja3L0WpvbV5-16">
          <mxGeometry relative="1" as="geometry" />
        </mxCell>
        <mxCell id="HPaSDG_vXja3L0WpvbV5-3" value="Reverse proxy" style="sketch=0;outlineConnect=0;fontColor=#232F3E;gradientColor=none;fillColor=#232F3D;strokeColor=none;dashed=0;verticalLabelPosition=middle;verticalAlign=middle;align=right;html=1;fontSize=12;fontStyle=0;aspect=fixed;pointerEvents=1;shape=mxgraph.aws4.traditional_server;labelPosition=left;spacingRight=5;" vertex="1" parent="1">
          <mxGeometry x="-322.5" y="200" width="45" height="78" as="geometry" />
        </mxCell>
        <mxCell id="HPaSDG_vXja3L0WpvbV5-4" value="&amp;nbsp;Data replication&amp;nbsp;" style="edgeStyle=orthogonalEdgeStyle;rounded=0;orthogonalLoop=1;jettySize=auto;html=1;entryX=0;entryY=0.5;entryDx=0;entryDy=0;entryPerimeter=0;" edge="1" parent="1" source="HPaSDG_vXja3L0WpvbV5-5" target="HPaSDG_vXja3L0WpvbV5-8">
          <mxGeometry relative="1" as="geometry" />
        </mxCell>
        <mxCell id="HPaSDG_vXja3L0WpvbV5-5" value="Main DB" style="sketch=0;outlineConnect=0;fontColor=#232F3E;gradientColor=none;fillColor=#232F3D;strokeColor=none;dashed=0;verticalLabelPosition=middle;verticalAlign=middle;align=right;html=1;fontSize=12;fontStyle=0;aspect=fixed;pointerEvents=1;shape=mxgraph.aws4.generic_database;labelPosition=left;spacingRight=5;" vertex="1" parent="1">
          <mxGeometry x="-322.89" y="429" width="45.39" height="60" as="geometry" />
        </mxCell>
        <mxCell id="HPaSDG_vXja3L0WpvbV5-6" value="" style="rounded=1;arcSize=10;dashed=0;fillColor=none;gradientColor=none;strokeWidth=2;" vertex="1" parent="1">
          <mxGeometry x="-30" y="120" width="170" height="430" as="geometry" />
        </mxCell>
        <mxCell id="HPaSDG_vXja3L0WpvbV5-7" value="" style="dashed=0;html=1;shape=mxgraph.aws3.cloud;fillColor=#F58536;gradientColor=none;dashed=0;" vertex="1" parent="1">
          <mxGeometry x="-10" y="100" width="52" height="36" as="geometry" />
        </mxCell>
        <mxCell id="HPaSDG_vXja3L0WpvbV5-8" value="RDS Mirror (Running)" style="sketch=0;points=[[0,0,0],[0.25,0,0],[0.5,0,0],[0.75,0,0],[1,0,0],[0,1,0],[0.25,1,0],[0.5,1,0],[0.75,1,0],[1,1,0],[0,0.25,0],[0,0.5,0],[0,0.75,0],[1,0.25,0],[1,0.5,0],[1,0.75,0]];outlineConnect=0;fontColor=#232F3E;gradientColor=#4D72F3;gradientDirection=north;fillColor=#3334B9;strokeColor=#ffffff;dashed=0;verticalLabelPosition=bottom;verticalAlign=top;align=center;html=1;fontSize=12;fontStyle=0;aspect=fixed;shape=mxgraph.aws4.resourceIcon;resIcon=mxgraph.aws4.rds;" vertex="1" parent="1">
          <mxGeometry x="16" y="420" width="78" height="78" as="geometry" />
        </mxCell>
        <mxCell id="HPaSDG_vXja3L0WpvbV5-9" value="Active" style="edgeStyle=orthogonalEdgeStyle;rounded=0;orthogonalLoop=1;jettySize=auto;html=1;" edge="1" parent="1" source="HPaSDG_vXja3L0WpvbV5-11" target="HPaSDG_vXja3L0WpvbV5-3">
          <mxGeometry x="0.2164" relative="1" as="geometry">
            <mxPoint as="offset" />
          </mxGeometry>
        </mxCell>
        <mxCell id="HPaSDG_vXja3L0WpvbV5-10" value="Active" style="edgeStyle=orthogonalEdgeStyle;rounded=0;orthogonalLoop=1;jettySize=auto;html=1;" edge="1" parent="1" source="HPaSDG_vXja3L0WpvbV5-11" target="HPaSDG_vXja3L0WpvbV5-12">
          <mxGeometry x="0.403" relative="1" as="geometry">
            <mxPoint as="offset" />
          </mxGeometry>
        </mxCell>
        <mxCell id="HPaSDG_vXja3L0WpvbV5-11" value="Route 53" style="sketch=0;points=[[0,0,0],[0.25,0,0],[0.5,0,0],[0.75,0,0],[1,0,0],[0,1,0],[0.25,1,0],[0.5,1,0],[0.75,1,0],[1,1,0],[0,0.25,0],[0,0.5,0],[0,0.75,0],[1,0.25,0],[1,0.5,0],[1,0.75,0]];outlineConnect=0;fontColor=#232F3E;gradientColor=#945DF2;gradientDirection=north;fillColor=#5A30B5;strokeColor=#ffffff;dashed=0;verticalLabelPosition=bottom;verticalAlign=top;align=center;html=1;fontSize=12;fontStyle=0;aspect=fixed;shape=mxgraph.aws4.resourceIcon;resIcon=mxgraph.aws4.route_53;" vertex="1" parent="1">
          <mxGeometry x="-170" y="10" width="78" height="78" as="geometry" />
        </mxCell>
        <mxCell id="HPaSDG_vXja3L0WpvbV5-12" value="ELB - Elastic Load Balancer" style="sketch=0;points=[[0,0,0],[0.25,0,0],[0.5,0,0],[0.75,0,0],[1,0,0],[0,1,0],[0.25,1,0],[0.5,1,0],[0.75,1,0],[1,1,0],[0,0.25,0],[0,0.5,0],[0,0.75,0],[1,0.25,0],[1,0.5,0],[1,0.75,0]];outlineConnect=0;fontColor=#232F3E;gradientColor=#F78E04;gradientDirection=north;fillColor=#D05C17;strokeColor=#ffffff;dashed=0;verticalLabelPosition=bottom;verticalAlign=top;align=center;html=1;fontSize=12;fontStyle=0;aspect=fixed;shape=mxgraph.aws4.resourceIcon;resIcon=mxgraph.aws4.elastic_load_balancing;" vertex="1" parent="1">
          <mxGeometry x="16" y="170" width="78" height="78" as="geometry" />
        </mxCell>
        <mxCell id="HPaSDG_vXja3L0WpvbV5-13" value="Failover" style="edgeStyle=orthogonalEdgeStyle;rounded=0;orthogonalLoop=1;jettySize=auto;html=1;entryX=1;entryY=0.5;entryDx=0;entryDy=0;entryPerimeter=0;dashed=1;" edge="1" parent="1" source="HPaSDG_vXja3L0WpvbV5-14" target="HPaSDG_vXja3L0WpvbV5-8">
          <mxGeometry relative="1" as="geometry">
            <Array as="points">
              <mxPoint x="180" y="335" />
              <mxPoint x="180" y="459" />
            </Array>
          </mxGeometry>
        </mxCell>
        <mxCell id="HPaSDG_vXja3L0WpvbV5-17" style="rounded=0;orthogonalLoop=1;jettySize=auto;html=1;" edge="1" parent="1" source="HPaSDG_vXja3L0WpvbV5-14" target="HPaSDG_vXja3L0WpvbV5-5">
          <mxGeometry relative="1" as="geometry" />
        </mxCell>
        <mxCell id="HPaSDG_vXja3L0WpvbV5-14" value="EC2&lt;br&gt;ASG - Auto Scaling Group" style="sketch=0;points=[[0,0,0],[0.25,0,0],[0.5,0,0],[0.75,0,0],[1,0,0],[0,1,0],[0.25,1,0],[0.5,1,0],[0.75,1,0],[1,1,0],[0,0.25,0],[0,0.5,0],[0,0.75,0],[1,0.25,0],[1,0.5,0],[1,0.75,0]];outlineConnect=0;fontColor=#232F3E;gradientColor=#F78E04;gradientDirection=north;fillColor=#D05C17;strokeColor=#ffffff;dashed=0;verticalLabelPosition=bottom;verticalAlign=top;align=center;html=1;fontSize=12;fontStyle=0;aspect=fixed;shape=mxgraph.aws4.resourceIcon;resIcon=mxgraph.aws4.auto_scaling2;" vertex="1" parent="1">
          <mxGeometry x="16" y="296" width="78" height="78" as="geometry" />
        </mxCell>
        <mxCell id="HPaSDG_vXja3L0WpvbV5-15" style="edgeStyle=orthogonalEdgeStyle;rounded=0;orthogonalLoop=1;jettySize=auto;html=1;" edge="1" parent="1" source="HPaSDG_vXja3L0WpvbV5-16" target="HPaSDG_vXja3L0WpvbV5-5">
          <mxGeometry relative="1" as="geometry" />
        </mxCell>
        <mxCell id="HPaSDG_vXja3L0WpvbV5-16" value="App Server" style="sketch=0;outlineConnect=0;fontColor=#232F3E;gradientColor=none;fillColor=#232F3D;strokeColor=none;dashed=0;verticalLabelPosition=middle;verticalAlign=middle;align=right;html=1;fontSize=12;fontStyle=0;aspect=fixed;pointerEvents=1;shape=mxgraph.aws4.traditional_server;labelPosition=left;spacingRight=5;" vertex="1" parent="1">
          <mxGeometry x="-322.5" y="310" width="45" height="78" as="geometry" />
        </mxCell>
      </root>
    </mxGraphModel>
  </diagram>
</mxfile>
